<svg width="40" height="41" viewBox="0 0 40 41" fill="none" xmlns="http://www.w3.org/2000/svg">
<g id="Social Icons / ApplePodcasts">
<rect x="0.5" y="1.08008" width="39" height="39" rx="9.5" stroke="white" stroke-opacity="0.25"/>
<g id="Vector">
<path d="M22.3727 23.776C22.3337 23.4256 22.2169 23.1725 21.9833 22.9389C21.5453 22.4814 20.7764 22.1797 19.8712 22.1797C18.966 22.1797 18.1971 22.4717 17.7591 22.9389C17.5352 23.1822 17.4087 23.4256 17.3697 23.776C17.2919 24.4573 17.3405 25.0413 17.4184 25.9854C17.4963 26.8809 17.6423 28.0781 17.8272 29.285C17.9635 30.1513 18.0705 30.6185 18.1679 30.9494C18.3333 31.4945 18.9271 31.9617 19.8712 31.9617C20.8153 31.9617 21.4188 31.4848 21.5745 30.9494C21.6719 30.6185 21.7789 30.1513 21.9152 29.285C22.1001 28.0684 22.2461 26.8809 22.324 25.9854C22.4116 25.0413 22.4505 24.4573 22.3727 23.776Z" fill="white"/>
<path d="M22.2641 18.8117C22.2641 20.1354 21.1935 21.2061 19.8697 21.2061C18.546 21.2061 17.4753 20.1354 17.4753 18.8117C17.4753 17.488 18.546 16.4173 19.8697 16.4173C21.1935 16.4173 22.2641 17.4977 22.2641 18.8117Z" fill="white"/>
<path d="M19.8419 9.38014C14.255 9.39961 9.6803 13.9353 9.60243 19.5223C9.54403 24.0483 12.4348 27.9221 16.4742 29.3432C16.5715 29.3821 16.6688 29.2945 16.6591 29.1972C16.6104 28.8468 16.552 28.4964 16.5131 28.146C16.4936 28.0195 16.4158 27.9221 16.3087 27.8637C13.1162 26.4719 10.8872 23.2696 10.9262 19.5612C10.9748 14.6945 14.946 10.7331 19.803 10.6941C24.7767 10.6552 28.8355 14.6848 28.8355 19.6488C28.8355 23.3183 26.6163 26.4719 23.453 27.8637C23.3362 27.9124 23.2583 28.0195 23.2486 28.146C23.1999 28.4964 23.1512 28.8468 23.1026 29.1972C23.0831 29.3043 23.1902 29.3821 23.2875 29.3432C27.2879 27.9416 30.1592 24.1261 30.1592 19.6488C30.1398 13.984 25.5164 9.37041 19.8419 9.38014Z" fill="white"/>
<path d="M19.6069 12.7867C15.9667 12.923 13.0467 15.9306 12.998 19.5709C12.9688 21.9653 14.166 24.0871 16.0056 25.3427C16.0932 25.4011 16.2197 25.333 16.2197 25.2259C16.1905 24.8074 16.1905 24.4375 16.21 24.0482C16.2197 23.9217 16.1711 23.8049 16.0737 23.7173C14.9544 22.6661 14.2731 21.1671 14.312 19.5125C14.3899 16.5925 16.7356 14.2175 19.6556 14.1007C22.8287 13.9742 25.4372 16.5243 25.4372 19.6585C25.4372 21.2547 24.7559 22.6953 23.6755 23.7173C23.5879 23.8049 23.5392 23.9217 23.5392 24.0482C23.5587 24.4278 23.5489 24.7977 23.5295 25.2162C23.5197 25.3233 23.6463 25.4011 23.7436 25.333C25.554 24.0969 26.7512 22.0042 26.7512 19.6487C26.7609 15.7749 23.5197 12.631 19.6069 12.7867Z" fill="white"/>
</g>
</g>
</svg>
