<svg width="40" height="41" viewBox="0 0 40 41" fill="none" xmlns="http://www.w3.org/2000/svg">
<g id="Social Icons / Spotify">
<rect x="0.5" y="1.08008" width="39" height="39" rx="9.5" stroke="white" stroke-opacity="0.25"/>
<path id="Spotify" fill-rule="evenodd" clip-rule="evenodd" d="M20.006 10.5801C14.5027 10.5801 10 15.0828 10 20.5861C10 26.0894 14.5027 30.5921 20.006 30.5921C25.5093 30.5921 30.012 26.0894 30.012 20.5861C30.012 15.0828 25.5593 10.5801 20.006 10.5801ZM24.6088 25.0387C24.4086 25.3389 24.0584 25.439 23.7582 25.2389C21.4068 23.788 18.4551 23.4878 14.953 24.2883C14.6028 24.3884 14.3026 24.1382 14.2025 23.838C14.1025 23.4878 14.3526 23.1876 14.6528 23.0876C18.4551 22.2371 21.757 22.5873 24.3586 24.1882C24.7088 24.3383 24.7589 24.7386 24.6088 25.0387ZM25.8095 22.2871C25.5593 22.6373 25.1091 22.7874 24.7589 22.5372C22.0572 20.8863 17.9548 20.386 14.8029 21.3866C14.4026 21.4866 13.9524 21.2865 13.8523 20.8863C13.7522 20.486 13.9524 20.0357 14.3526 19.9357C18.0048 18.835 22.5075 19.3854 25.6094 21.2865C25.9095 21.4366 26.0596 21.9369 25.8095 22.2871ZM25.9095 19.4854C22.7076 17.5843 17.3544 17.3842 14.3026 18.3347C13.8023 18.4848 13.302 18.1846 13.1519 17.7344C13.0018 17.2341 13.302 16.7338 13.7522 16.5837C17.3044 15.533 23.1579 15.7332 26.8601 17.9345C27.3104 18.1846 27.4605 18.785 27.2103 19.2353C26.9602 19.5855 26.3598 19.7356 25.9095 19.4854Z" fill="white"/>
</g>
</svg>
