<svg width="41" height="41" viewBox="0 0 41 41" fill="none" xmlns="http://www.w3.org/2000/svg">
<g id="Social Icons / Linkedin">
<rect x="1.16656" y="1" width="38.9999" height="38.9999" rx="9.49999" stroke="#000212"/>
<path id="Vector" fill-rule="evenodd" clip-rule="evenodd" d="M11.4814 9.70001C10.5898 9.70001 9.86658 10.4013 9.86658 11.2652V29.9853C9.86658 30.8493 10.5899 31.55 11.4814 31.55H30.1017C30.9936 31.55 31.7165 30.8492 31.7165 29.9851V11.2652C31.7165 10.4013 30.9936 9.70001 30.1017 9.70001H11.4814ZM16.5064 18.1487V27.9856H13.2368V18.1487H16.5064ZM16.7219 15.1065C16.7219 16.0505 16.0122 16.8059 14.8723 16.8059L14.8508 16.8058C13.7535 16.8058 13.044 16.0504 13.044 15.1064C13.044 14.141 13.7749 13.4067 14.8939 13.4067C16.0122 13.4067 16.7006 14.141 16.7219 15.1065ZM21.5856 27.9856H18.3162C18.3162 27.9856 18.359 19.0718 18.3164 18.149H21.5858V19.5414C22.0205 18.8713 22.7983 17.9181 24.5326 17.9181C26.6837 17.9181 28.2965 19.3241 28.2965 22.3454V27.9856H25.0272V22.7237C25.0272 21.4012 24.5538 20.4992 23.371 20.4992C22.4675 20.4992 21.9295 21.1075 21.6933 21.6951C21.6069 21.9048 21.5856 22.1992 21.5856 22.4928V27.9856Z" fill="#000212"/>
</g>
</svg>
