<svg width="140" height="38" viewBox="0 0 140 38" fill="none" xmlns="http://www.w3.org/2000/svg">
<path d="M6.48282 17.5L0.189398 1.01775H6.60667L8.35171 6.98469C8.6069 7.85533 8.79454 8.59088 8.91463 9.19133C9.04223 9.79177 9.12479 10.3547 9.16231 10.8801H9.2749C9.34995 10.3247 9.45503 9.73923 9.59013 9.12378C9.73274 8.50832 9.91287 7.84032 10.1305 7.11979L11.9769 1.01775H18.2703L11.9994 17.5H6.48282ZM2.5424 37.5V21.0178H9.62391C12.1158 21.0178 13.9359 21.4981 15.0842 22.4588C16.2401 23.4195 16.818 24.9432 16.818 27.0297C16.818 28.9737 16.3001 30.396 15.2643 31.2966C14.2286 32.1898 12.5849 32.6364 10.3332 32.6364H8.47555V37.5H2.5424ZM8.49807 25.5999V28.3469H9.42126C9.98417 28.3469 10.4157 28.2306 10.716 27.9979C11.0162 27.7578 11.1663 27.42 11.1663 26.9847C11.1663 26.5494 11.0124 26.2116 10.7047 25.9714C10.397 25.7238 9.96916 25.5999 9.42126 25.5999H8.49807Z" fill="#5D5FEF"/>
<path d="M19.1147 17.5V1.01775H25.1379V17.5H19.1147ZM28.3466 17.5V1.01775H34.1559V8.04297L37.9162 1.01775H44.6262L39.65 9.13504L45.3242 17.5H38.1526L34.1559 10.6099V17.5H28.3466ZM48.105 17.5V6.41051H44.8063V1.01775H57.3256V6.41051H54.0269V17.5H48.105ZM67.4694 12.4C68.3025 12.4 68.9705 12.1185 69.4734 11.5556C69.9838 10.9852 70.2389 10.2308 70.2389 9.29265C70.2389 8.34695 69.9838 7.58889 69.4734 7.01846C68.9705 6.44053 68.3025 6.15157 67.4694 6.15157C66.6363 6.15157 65.9645 6.44053 65.4541 7.01846C64.9438 7.59639 64.6886 8.35446 64.6886 9.29265C64.6886 10.2308 64.9438 10.9852 65.4541 11.5556C65.9645 12.1185 66.6363 12.4 67.4694 12.4ZM76.2847 9.29265C76.2847 10.501 76.0708 11.6269 75.643 12.6702C75.2151 13.7059 74.5884 14.6329 73.7628 15.451C72.9372 16.2541 71.984 16.8695 70.9032 17.2973C69.8299 17.7252 68.6853 17.9391 67.4694 17.9391C66.2385 17.9391 65.0864 17.7252 64.0131 17.2973C62.9398 16.8695 61.9866 16.2466 61.1534 15.4285C60.3353 14.6329 59.7161 13.7172 59.2958 12.6814C58.8755 11.6457 58.6653 10.5161 58.6653 9.29265C58.6653 8.06924 58.8755 6.9359 59.2958 5.89263C59.7161 4.84935 60.3353 3.92992 61.1534 3.13433C61.9791 2.32372 62.9285 1.70827 64.0018 1.28795C65.0751 0.860137 66.231 0.646228 67.4694 0.646228C68.7078 0.646228 69.8637 0.860137 70.937 1.28795C72.0103 1.70827 72.9635 2.32372 73.7966 3.13433C74.6072 3.93742 75.2226 4.86061 75.643 5.90388C76.0708 6.94716 76.2847 8.07675 76.2847 9.29265ZM84.5934 5.26216V8.48205H85.5165C86.0795 8.48205 86.511 8.34695 86.8113 8.07675C87.119 7.79904 87.2728 7.405 87.2728 6.89462C87.2728 6.36923 87.119 5.96768 86.8113 5.68998C86.511 5.40476 86.0795 5.26216 85.5165 5.26216H84.5934ZM78.784 17.5V1.01775H86.2371C88.3987 1.01775 90.0499 1.49436 91.1908 2.44757C92.3316 3.40077 92.902 4.7743 92.902 6.56813C92.902 7.739 92.6131 8.70346 92.0351 9.46153C91.4647 10.2196 90.6916 10.6624 89.7159 10.79L94.1179 17.5H87.4755L84.5934 12.0622V17.5H78.784ZM18.867 37.5V21.0178H29.889V25.4873H24.6763V27.0748H29.4049V31.2966H24.6763V33.0304H30.0241V37.5H18.867ZM34.5499 37.5V26.4105H31.2512V21.0178H43.7705V26.4105H40.4718V37.5H34.5499ZM45.6844 37.5V21.0178H56.7064V25.4873H51.4938V27.0748H56.2223V31.2966H51.4938V33.0304H56.8415V37.5H45.6844ZM65.0488 25.2622V28.482H65.972C66.5349 28.482 66.9665 28.3469 67.2667 28.0767C67.5745 27.799 67.7283 27.405 67.7283 26.8946C67.7283 26.3692 67.5745 25.9677 67.2667 25.69C66.9665 25.4048 66.5349 25.2622 65.972 25.2622H65.0488ZM59.2395 37.5V21.0178H66.6926C68.8542 21.0178 70.5054 21.4944 71.6462 22.4476C72.7871 23.4008 73.3575 24.7743 73.3575 26.5681C73.3575 27.739 73.0685 28.7035 72.4906 29.4615C71.9202 30.2196 71.1471 30.6624 70.1714 30.79L74.5734 37.5H67.931L65.0488 32.0622V37.5H59.2395ZM74.2469 36.0927L76.1383 31.4768C76.9865 32.0697 77.7408 32.505 78.4013 32.7827C79.0693 33.0529 79.6922 33.188 80.2701 33.188C80.6754 33.188 80.9944 33.113 81.2271 32.9629C81.4598 32.8053 81.5761 32.5951 81.5761 32.3324C81.5761 31.8746 80.9944 31.5256 79.8311 31.2854C79.4558 31.2028 79.1631 31.139 78.9529 31.094C77.722 30.7938 76.7801 30.2609 76.1271 29.4953C75.4741 28.7297 75.1476 27.7765 75.1476 26.6357C75.1476 24.8644 75.7818 23.4233 77.0503 22.3125C78.3187 21.2016 79.9812 20.6462 82.0377 20.6462C82.9834 20.6462 83.9141 20.7701 84.8298 21.0178C85.7455 21.2654 86.6687 21.6407 87.5993 22.1436L85.798 26.4555C85.2276 26.0352 84.6534 25.7162 84.0755 25.4986C83.5051 25.2734 82.9496 25.1608 82.4092 25.1608C81.9964 25.1608 81.6774 25.2321 81.4523 25.3747C81.2271 25.5098 81.1145 25.7012 81.1145 25.9489C81.1145 26.4143 81.9364 26.8233 83.5801 27.1761C83.8428 27.2361 84.0455 27.2812 84.1881 27.3112C85.3214 27.5664 86.2146 28.088 86.8675 28.8761C87.5205 29.6642 87.847 30.6174 87.847 31.7357C87.847 33.5596 87.1865 35.0494 85.8656 36.2053C84.5521 37.3611 82.8408 37.9391 80.7317 37.9391C79.6509 37.9391 78.5701 37.7852 77.4893 37.4775C76.4085 37.1698 75.3277 36.7082 74.2469 36.0927ZM88.3424 36.0927L90.2338 31.4768C91.0819 32.0697 91.8362 32.505 92.4967 32.7827C93.1647 33.0529 93.7877 33.188 94.3656 33.188C94.7709 33.188 95.0899 33.113 95.3226 32.9629C95.5553 32.8053 95.6716 32.5951 95.6716 32.3324C95.6716 31.8746 95.0899 31.5256 93.9265 31.2854C93.5513 31.2028 93.2585 31.139 93.0484 31.094C91.8175 30.7938 90.8755 30.2609 90.2225 29.4953C89.5696 28.7297 89.2431 27.7765 89.2431 26.6357C89.2431 24.8644 89.8773 23.4233 91.1457 22.3125C92.4142 21.2016 94.0767 20.6462 96.1332 20.6462C97.0789 20.6462 98.0096 20.7701 98.9253 21.0178C99.8409 21.2654 100.764 21.6407 101.695 22.1436L99.8935 26.4555C99.3231 26.0352 98.7489 25.7162 98.1709 25.4986C97.6005 25.2734 97.0451 25.1608 96.5047 25.1608C96.0919 25.1608 95.7729 25.2321 95.5478 25.3747C95.3226 25.5098 95.21 25.7012 95.21 25.9489C95.21 26.4143 96.0319 26.8233 97.6756 27.1761C97.9383 27.2361 98.1409 27.2812 98.2835 27.3112C99.4169 27.5664 100.31 28.088 100.963 28.8761C101.616 29.6642 101.943 30.6174 101.943 31.7357C101.943 33.5596 101.282 35.0494 99.961 36.2053C98.6476 37.3611 96.9363 37.9391 94.8272 37.9391C93.7464 37.9391 92.6656 37.7852 91.5848 37.4775C90.504 37.1698 89.4232 36.7082 88.3424 36.0927ZM112.165 32.4C112.998 32.4 113.666 32.1185 114.169 31.5556C114.679 30.9852 114.935 30.2308 114.935 29.2927C114.935 28.3469 114.679 27.5889 114.169 27.0185C113.666 26.4405 112.998 26.1516 112.165 26.1516C111.332 26.1516 110.66 26.4405 110.15 27.0185C109.639 27.5964 109.384 28.3545 109.384 29.2927C109.384 30.2308 109.639 30.9852 110.15 31.5556C110.66 32.1185 111.332 32.4 112.165 32.4ZM120.98 29.2927C120.98 30.501 120.766 31.6269 120.339 32.6702C119.911 33.7059 119.284 34.6329 118.459 35.451C117.633 36.2541 116.68 36.8695 115.599 37.2973C114.526 37.7252 113.381 37.9391 112.165 37.9391C110.934 37.9391 109.782 37.7252 108.709 37.2973C107.635 36.8695 106.682 36.2466 105.849 35.4285C105.031 34.6329 104.412 33.7172 103.992 32.6814C103.571 31.6457 103.361 30.5161 103.361 29.2927C103.361 28.0692 103.571 26.9359 103.992 25.8926C104.412 24.8494 105.031 23.9299 105.849 23.1343C106.675 22.3237 107.624 21.7083 108.698 21.288C109.771 20.8601 110.927 20.6462 112.165 20.6462C113.404 20.6462 114.559 20.8601 115.633 21.288C116.706 21.7083 117.659 22.3237 118.492 23.1343C119.303 23.9374 119.918 24.8606 120.339 25.9039C120.766 26.9472 120.98 28.0767 120.98 29.2927ZM123.48 37.5V21.0178H129.289L134.412 29.6417C134.344 29.2589 134.295 28.8348 134.265 28.3695C134.243 27.9041 134.231 27.2962 134.231 26.5456V21.0178H139.939V37.5H134.085L129.019 28.9436C129.079 29.3114 129.124 29.7092 129.154 30.137C129.184 30.5573 129.199 31.0302 129.199 31.5556V37.5H123.48Z" fill="white"/>
</svg>
