<svg width="41" height="41" viewBox="0 0 41 41" fill="none" xmlns="http://www.w3.org/2000/svg">
<g id="Social Icons / ApplePodcasts">
<rect x="0.666504" y="0.580078" width="40" height="40" rx="10" fill="#5D5FEF"/>
<g id="Vector">
<path d="M23.0382 23.776C22.9993 23.4256 22.8825 23.1725 22.6489 22.9389C22.2109 22.4814 21.4419 22.1797 20.5367 22.1797C19.6315 22.1797 18.8626 22.4717 18.4246 22.9389C18.2007 23.1822 18.0742 23.4256 18.0353 23.776C17.9574 24.4573 18.0061 25.0413 18.0839 25.9854C18.1618 26.8809 18.3078 28.0781 18.4927 29.285C18.629 30.1513 18.7361 30.6185 18.8334 30.9494C18.9989 31.4945 19.5926 31.9617 20.5367 31.9617C21.4809 31.9617 22.0843 31.4848 22.2401 30.9494C22.3374 30.6185 22.4445 30.1513 22.5807 29.285C22.7657 28.0684 22.9117 26.8809 22.9895 25.9854C23.0771 25.0413 23.1161 24.4573 23.0382 23.776Z" fill="white"/>
<path d="M22.9297 18.8117C22.9297 20.1354 21.859 21.2061 20.5353 21.2061C19.2115 21.2061 18.1409 20.1354 18.1409 18.8117C18.1409 17.488 19.2115 16.4173 20.5353 16.4173C21.859 16.4173 22.9297 17.4977 22.9297 18.8117Z" fill="white"/>
<path d="M20.5074 9.38014C14.9205 9.39961 10.3458 13.9353 10.268 19.5223C10.2096 24.0483 13.1004 27.9221 17.1397 29.3432C17.237 29.3821 17.3344 29.2945 17.3246 29.1972C17.276 28.8468 17.2176 28.4964 17.1786 28.146C17.1592 28.0195 17.0813 27.9221 16.9742 27.8637C13.7817 26.4719 11.5528 23.2696 11.5917 19.5612C11.6404 14.6945 15.6116 10.7331 20.4685 10.6941C25.4422 10.6552 29.501 14.6848 29.501 19.6488C29.501 23.3183 27.2818 26.4719 24.1185 27.8637C24.0017 27.9124 23.9238 28.0195 23.9141 28.146C23.8654 28.4964 23.8168 28.8468 23.7681 29.1972C23.7486 29.3043 23.8557 29.3821 23.953 29.3432C27.9534 27.9416 30.8248 24.1261 30.8248 19.6488C30.8053 13.984 26.182 9.37041 20.5074 9.38014Z" fill="white"/>
<path d="M20.2725 12.7867C16.6322 12.923 13.7122 15.9306 13.6635 19.5709C13.6343 21.9653 14.8315 24.0871 16.6711 25.3427C16.7587 25.4011 16.8853 25.333 16.8853 25.2259C16.8561 24.8074 16.8561 24.4375 16.8755 24.0482C16.8853 23.9217 16.8366 23.8049 16.7393 23.7173C15.6199 22.6661 14.9386 21.1671 14.9775 19.5125C15.0554 16.5925 17.4011 14.2175 20.3211 14.1007C23.4942 13.9742 26.1027 16.5243 26.1027 19.6585C26.1027 21.2547 25.4214 22.6953 24.341 23.7173C24.2534 23.8049 24.2047 23.9217 24.2047 24.0482C24.2242 24.4278 24.2145 24.7977 24.195 25.2162C24.1853 25.3233 24.3118 25.4011 24.4091 25.333C26.2195 24.0969 27.4167 22.0042 27.4167 19.6487C27.4265 15.7749 24.1853 12.631 20.2725 12.7867Z" fill="white"/>
</g>
</g>
</svg>
