<svg width="40" height="41" viewBox="0 0 40 41" fill="none" xmlns="http://www.w3.org/2000/svg">
<g id="Social Icons / Youtube">
<rect x="0.5" y="1.08008" width="39" height="39" rx="9.5" stroke="white" stroke-opacity="0.25"/>
<path id="Vector" fill-rule="evenodd" clip-rule="evenodd" d="M28.7086 13.0564C29.6915 13.3219 30.4641 14.0964 30.7252 15.0783C31.2004 16.8601 31.2004 20.5801 31.2004 20.5801C31.2004 20.5801 31.2004 24.3001 30.7252 26.0819C30.4605 27.0674 29.6879 27.8419 28.7086 28.1037C26.9313 28.5801 19.8004 28.5801 19.8004 28.5801C19.8004 28.5801 12.6731 28.5801 10.8922 28.1037C9.90927 27.8383 9.13669 27.0637 8.87554 26.0819C8.40039 24.3001 8.40039 20.5801 8.40039 20.5801C8.40039 20.5801 8.40039 16.8601 8.87554 15.0783C9.14032 14.0928 9.91289 13.3183 10.8922 13.0564C12.6731 12.5801 19.8004 12.5801 19.8004 12.5801C19.8004 12.5801 26.9313 12.5801 28.7086 13.0564ZM23.4456 20.5801L17.5226 24.0092V17.151L23.4456 20.5801Z" fill="white"/>
</g>
</svg>
