<svg width="21" height="21" viewBox="0 0 21 21" fill="none" xmlns="http://www.w3.org/2000/svg">
<path id="Spotify" fill-rule="evenodd" clip-rule="evenodd" d="M10.8058 0.494141C5.3025 0.494141 0.799805 4.99684 0.799805 10.5001C0.799805 16.0034 5.3025 20.5061 10.8058 20.5061C16.3091 20.5061 20.8118 16.0034 20.8118 10.5001C20.8118 4.99684 16.3591 0.494141 10.8058 0.494141ZM15.4086 14.9528C15.2084 15.253 14.8582 15.3531 14.5581 15.1529C12.2066 13.7021 9.25487 13.4019 5.75277 14.2024C5.40256 14.3024 5.10238 14.0523 5.00232 13.7521C4.90226 13.4019 5.15241 13.1017 5.45259 13.0016C9.25488 12.1511 12.5569 12.5013 15.1584 14.1023C15.5086 14.2524 15.5587 14.6526 15.4086 14.9528ZM16.6093 12.2012C16.3591 12.5514 15.9089 12.7015 15.5587 12.4513C12.857 10.8003 8.75457 10.3 5.60268 11.3006C5.20244 11.4007 4.75217 11.2006 4.65211 10.8003C4.55205 10.4001 4.75217 9.94981 5.15241 9.84975C8.8046 8.74909 13.3073 9.29942 16.4092 11.2006C16.7093 11.3507 16.8594 11.851 16.6093 12.2012ZM16.7093 9.39948C13.5074 7.49834 8.15421 7.29822 5.10238 8.24879C4.60208 8.39888 4.10178 8.0987 3.95169 7.64843C3.8016 7.14813 4.10178 6.64783 4.55205 6.49774C8.10418 5.44711 13.9577 5.64723 17.6599 7.84855C18.1102 8.0987 18.2603 8.69906 18.0101 9.14933C17.76 9.49954 17.1596 9.64963 16.7093 9.39948Z" fill="white"/>
</svg>
