<svg width="20" height="21" viewBox="0 0 20 21" fill="none" xmlns="http://www.w3.org/2000/svg">
<path d="M15 6.5C14.7167 6.5 14.4793 6.404 14.288 6.212C14.0967 6.02 14.0007 5.78267 14 5.5C14 5.21667 14.096 4.97933 14.288 4.788C14.48 4.59667 14.7173 4.50067 15 4.5C15.2833 4.5 15.521 4.596 15.713 4.788C15.905 4.98 16.0007 5.21733 16 5.5C16 5.78333 15.904 6.021 15.712 6.213C15.52 6.405 15.2827 6.50067 15 6.5ZM15.975 12.5H8.025C7.80833 12.5 7.65433 12.4083 7.563 12.225C7.47167 12.0417 7.49233 11.8667 7.625 11.7L9.3 9.5C9.4 9.36667 9.53333 9.3 9.7 9.3C9.86667 9.3 10 9.36667 10.1 9.5L11.25 11L13.15 8.525C13.25 8.39167 13.3833 8.325 13.55 8.325C13.7167 8.325 13.85 8.39167 13.95 8.525L16.375 11.7C16.5083 11.8667 16.5293 12.0417 16.438 12.225C16.3467 12.4083 16.1923 12.5 15.975 12.5ZM2 20.5C1.45 20.5 0.979333 20.3043 0.588 19.913C0.196667 19.5217 0.000666667 19.0507 0 18.5V5.5C0 5.21667 0.0960001 4.97933 0.288 4.788C0.48 4.59667 0.717333 4.50067 1 4.5C1.28333 4.5 1.521 4.596 1.713 4.788C1.905 4.98 2.00067 5.21733 2 5.5V18.5H15C15.2833 18.5 15.521 18.596 15.713 18.788C15.905 18.98 16.0007 19.2173 16 19.5C16 19.7833 15.904 20.021 15.712 20.213C15.52 20.405 15.2827 20.5007 15 20.5H2ZM4 2.5C4 1.95 4.196 1.47933 4.588 1.088C4.98 0.696667 5.45067 0.500667 6 0.5H10C10.2833 0.5 10.521 0.596 10.713 0.788C10.905 0.98 11.0007 1.21733 11 1.5C11 1.78333 10.904 2.021 10.712 2.213C10.52 2.405 10.2827 2.50067 10 2.5H6V6.875C6 7.15833 5.904 7.396 5.712 7.588C5.52 7.78 5.28267 7.87567 5 7.875C4.71667 7.875 4.47933 7.779 4.288 7.587C4.09667 7.395 4.00067 7.158 4 6.876V2.5ZM6 16.5C5.45 16.5 4.97933 16.3043 4.588 15.913C4.19667 15.5217 4.00067 15.0507 4 14.5V10.875C4 10.5917 4.096 10.3543 4.288 10.163C4.48 9.97167 4.71733 9.87567 5 9.875C5.28333 9.875 5.521 9.971 5.713 10.163C5.905 10.355 6.00067 10.5923 6 10.875V14.5H10C10.2833 14.5 10.521 14.596 10.713 14.788C10.905 14.98 11.0007 15.2173 11 15.5C11 15.7833 10.904 16.021 10.712 16.213C10.52 16.405 10.2827 16.5007 10 16.5H6ZM18 16.5H14C13.7167 16.5 13.4793 16.404 13.288 16.212C13.0967 16.02 13.0007 15.7827 13 15.5C13 15.2167 13.096 14.9793 13.288 14.788C13.48 14.5967 13.7173 14.5007 14 14.5H18V10.875C18 10.5917 18.096 10.3543 18.288 10.163C18.48 9.97167 18.7173 9.87567 19 9.875C19.2833 9.875 19.521 9.971 19.713 10.163C19.905 10.355 20.0007 10.5923 20 10.875V14.5C20 15.05 19.8043 15.521 19.413 15.913C19.0217 16.305 18.5507 16.5007 18 16.5ZM20 2.5V6.875C20 7.15833 19.904 7.396 19.712 7.588C19.52 7.78 19.2827 7.87567 19 7.875C18.7167 7.875 18.4793 7.779 18.288 7.587C18.0967 7.395 18.0007 7.158 18 6.876V2.5H14C13.7167 2.5 13.4793 2.404 13.288 2.212C13.0967 2.02 13.0007 1.78267 13 1.5C13 1.21667 13.096 0.979333 13.288 0.788C13.48 0.596667 13.7173 0.500667 14 0.5H18C18.55 0.5 19.021 0.696 19.413 1.088C19.805 1.48 20.0007 1.95067 20 2.5Z" fill="white"/>
</svg>
