<svg width="8" height="15" viewBox="0 0 8 15" fill="none" xmlns="http://www.w3.org/2000/svg">
<g opacity="0.8" clip-path="url(#clip0_191_1796)">
<path d="M7.58666 0.582966L5.77778 0.580078C3.74557 0.580078 2.43227 1.92082 2.43227 3.99596V5.57092H0.61353C0.456369 5.57092 0.329102 5.6977 0.329102 5.85408V8.13601C0.329102 8.29239 0.456514 8.41903 0.61353 8.41903H2.43227V14.1771C2.43227 14.3334 2.55954 14.4601 2.7167 14.4601H5.08964C5.2468 14.4601 5.37407 14.3333 5.37407 14.1771V8.41903H7.5006C7.65776 8.41903 7.78503 8.29239 7.78503 8.13601L7.7859 5.85408C7.7859 5.779 7.75586 5.70708 7.7026 5.65395C7.64935 5.60081 7.57679 5.57092 7.50133 5.57092H5.37407V4.23581C5.37407 3.5941 5.52775 3.26834 6.36782 3.26834L7.58637 3.26791C7.74338 3.26791 7.87065 3.14113 7.87065 2.98489V0.865987C7.87065 0.709892 7.74353 0.583255 7.58666 0.582966Z" fill="white"/>
</g>
<defs>
<clipPath id="clip0_191_1796">
<rect width="7.54155" height="13.88" fill="white" transform="translate(0.329102 0.580078)"/>
</clipPath>
</defs>
</svg>
