<svg width="40" height="40" viewBox="0 0 40 40" fill="none" xmlns="http://www.w3.org/2000/svg">
<rect x="0.5" y="0.5" width="38.9999" height="38.9999" rx="9.49999" stroke="white" stroke-opacity="0.3"/>
<path d="M19.7531 11.2535C17.3476 11.2291 15.0309 12.1607 13.312 13.8436C11.5932 15.5266 10.6128 17.8231 10.5864 20.2285C10.5957 22.1295 11.2072 23.9786 12.3331 25.5103C13.4591 27.042 15.0415 28.1774 16.8531 28.7535C17.3114 28.8369 17.4781 28.5619 17.4781 28.3202C17.4781 28.0785 17.4781 27.5452 17.4781 26.7952C14.9281 27.3369 14.3864 25.5952 14.3864 25.5952C14.2167 25.0484 13.8558 24.5811 13.3698 24.2785C12.5364 23.7285 13.4364 23.7369 13.4364 23.7369C13.7245 23.7754 14.0001 23.8786 14.2425 24.0388C14.485 24.199 14.688 24.412 14.8364 24.6619C15.095 25.1103 15.5194 25.4393 16.0181 25.578C16.5168 25.7167 17.0501 25.654 17.5031 25.4035C17.5497 24.9472 17.7563 24.5221 18.0864 24.2035C16.0531 23.9785 13.9198 23.2119 13.9198 19.7702C13.9016 18.8724 14.2333 18.0028 14.8448 17.3452C14.5663 16.5744 14.5992 15.7254 14.9364 14.9785C14.9364 14.9785 15.7114 14.7369 17.4364 15.8952C18.938 15.4951 20.5182 15.4951 22.0198 15.8952C23.7698 14.7369 24.5198 14.9785 24.5198 14.9785C24.857 15.7254 24.8899 16.5744 24.6114 17.3452C25.2371 17.9907 25.5868 18.8545 25.5864 19.7535C25.5864 23.2035 23.4364 23.9619 21.4198 24.1869C21.6406 24.4012 21.8112 24.6619 21.9192 24.9501C22.0273 25.2383 22.0702 25.5468 22.0448 25.8535V28.3119C22.0448 28.3119 22.2114 28.8369 22.6698 28.7452C24.4762 28.1655 26.0533 27.0298 27.1758 25.5003C28.2982 23.9708 28.9086 22.1257 28.9198 20.2285C28.8934 17.8231 27.913 15.5266 26.1941 13.8436C24.4753 12.1607 22.1585 11.2291 19.7531 11.2535Z" fill="white"/>
</svg>
