<svg width="41" height="41" viewBox="0 0 41 41" fill="none" xmlns="http://www.w3.org/2000/svg">
<g id="Social Icons / Twitter">
<rect x="0.833282" y="1" width="38.9999" height="38.9999" rx="9.49999" stroke="#000212"/>
<g id="&#240;&#159;&#166;&#134; icon &#34;github&#34;">
<path id="Vector" d="M20.0862 11.7536C17.6808 11.7291 15.364 12.6608 13.6452 14.3437C11.9263 16.0266 10.9459 18.3232 10.9195 20.7286C10.9288 22.6296 11.5403 24.4787 12.6663 26.0104C13.7922 27.5421 15.3746 28.6775 17.1862 29.2536C17.6445 29.3369 17.8112 29.0619 17.8112 28.8202C17.8112 28.5786 17.8112 28.0452 17.8112 27.2952C15.2612 27.8369 14.7195 26.0952 14.7195 26.0952C14.5498 25.5485 14.1889 25.0811 13.7029 24.7786C12.8695 24.2286 13.7695 24.2369 13.7695 24.2369C14.0576 24.2754 14.3332 24.3786 14.5756 24.5388C14.8181 24.699 15.0211 24.9121 15.1695 25.1619C15.4282 25.6103 15.8525 25.9393 16.3512 26.078C16.8499 26.2167 17.3832 26.1541 17.8362 25.9036C17.8828 25.4472 18.0895 25.0221 18.4195 24.7036C16.3862 24.4786 14.2529 23.7119 14.2529 20.2702C14.2347 19.3725 14.5664 18.5028 15.1779 17.8452C14.8994 17.0745 14.9323 16.2255 15.2695 15.4786C15.2695 15.4786 16.0445 15.2369 17.7695 16.3952C19.2711 15.9951 20.8513 15.9951 22.3529 16.3952C24.1029 15.2369 24.8529 15.4786 24.8529 15.4786C25.1901 16.2255 25.223 17.0745 24.9445 17.8452C25.5702 18.4908 25.9199 19.3546 25.9195 20.2536C25.9195 23.7036 23.7695 24.4619 21.7529 24.6869C21.9737 24.9013 22.1443 25.162 22.2523 25.4501C22.3604 25.7383 22.4033 26.0469 22.3779 26.3536V28.8119C22.3779 28.8119 22.5445 29.3369 23.0029 29.2452C24.8093 28.6656 26.3864 27.5299 27.5089 26.0004C28.6313 24.4708 29.2417 22.6257 29.2529 20.7286C29.2265 18.3232 28.2461 16.0266 26.5273 14.3437C24.8084 12.6608 22.4917 11.7291 20.0862 11.7536Z" fill="#000212"/>
</g>
</g>
</svg>
