<svg width="14" height="14" viewBox="0 0 14 14" fill="none" xmlns="http://www.w3.org/2000/svg">
<g opacity="0.8" clip-path="url(#clip0_191_1792)">
<path d="M13.3252 13.8345V13.8339H13.3285V8.96737C13.3285 6.58662 12.8134 4.75269 10.0163 4.75269C8.67167 4.75269 7.76931 5.48692 7.40092 6.18301H7.36203V4.97495H4.70996V13.8339H7.47149V9.44728C7.47149 8.29229 7.69152 7.17545 9.12896 7.17545C10.5453 7.17545 10.5664 8.49354 10.5664 9.52136V13.8345H13.3252Z" fill="white"/>
<path d="M0.210938 4.99097H2.9758V13.8499H0.210938V4.99097Z" fill="white"/>
<path d="M1.60135 0.580078C0.717331 0.580078 0 1.29386 0 2.17351C0 3.05316 0.717331 3.78187 1.60135 3.78187C2.48538 3.78187 3.20271 3.05316 3.20271 2.17351C3.20215 1.29386 2.48482 0.580078 1.60135 0.580078V0.580078Z" fill="white"/>
</g>
<defs>
<clipPath id="clip0_191_1792">
<rect width="13.329" height="13.27" fill="white" transform="translate(0 0.580078)"/>
</clipPath>
</defs>
</svg>
