<svg width="40" height="40" viewBox="0 0 40 40" fill="none" xmlns="http://www.w3.org/2000/svg">
<rect x="0.5" y="0.5" width="38.9999" height="38.9999" rx="9.49999" stroke="white" stroke-opacity="0.3"/>
<path fill-rule="evenodd" clip-rule="evenodd" d="M10.815 9.20007C9.92346 9.20007 9.2002 9.90132 9.2002 10.7652V29.4854C9.2002 30.3494 9.92355 31.05 10.815 31.05H29.4353C30.3272 31.05 31.0502 30.3493 31.0502 29.4851V10.7652C31.0502 9.90132 30.3272 9.20007 29.4353 9.20007H10.815ZM15.84 17.6487V27.4857H12.5704V17.6487H15.84ZM16.0555 14.6066C16.0555 15.5506 15.3458 16.3059 14.2059 16.3059L14.1845 16.3058C13.0871 16.3058 12.3776 15.5505 12.3776 14.6065C12.3776 13.6411 13.1085 12.9068 14.2276 12.9068C15.3458 12.9068 16.0342 13.6411 16.0555 14.6066ZM20.9192 27.4857H17.6498C17.6498 27.4857 17.6927 18.5719 17.65 17.6491H20.9194V19.0415C21.3541 18.3713 22.1319 17.4181 23.8662 17.4181C26.0173 17.4181 27.6301 18.8241 27.6301 21.8455V27.4857H24.3608V22.2238C24.3608 20.9012 23.8874 19.9992 22.7046 19.9992C21.8011 19.9992 21.2632 20.6075 21.0269 21.1952C20.9405 21.4049 20.9192 21.6993 20.9192 21.9929V27.4857Z" fill="white"/>
</svg>
