<svg width="302" height="81" viewBox="0 0 302 81" fill="none" xmlns="http://www.w3.org/2000/svg">
<path d="M13.8177 37L0.252823 1.47408H14.0846L17.8459 14.3352C18.396 16.2118 18.8004 17.7972 19.0592 19.0914C19.3343 20.3856 19.5122 21.599 19.5931 22.7314H19.8358C19.9975 21.5343 20.224 20.2724 20.5152 18.9458C20.8226 17.6193 21.2109 16.1795 21.68 14.6264L25.6597 1.47408H39.2246L25.7082 37H13.8177ZM5.32449 80V44.4741H20.588C25.959 44.4741 29.882 45.5094 32.3572 47.5802C34.8485 49.6509 36.0942 52.9349 36.0942 57.4323C36.0942 61.6223 34.978 64.6879 32.7455 66.6292C30.513 68.5544 26.9701 69.5169 22.1168 69.5169H18.1129V80H5.32449ZM18.1614 54.3505V60.2715H20.1512C21.3645 60.2715 22.2948 60.0207 22.9419 59.5192C23.589 59.0015 23.9125 58.2735 23.9125 57.3352C23.9125 56.3969 23.5809 55.6689 22.9176 55.1513C22.2543 54.6174 21.3322 54.3505 20.1512 54.3505H18.1614Z" fill="#5D5FEF"/>
<path d="M41.0445 37V1.47408H54.027V37H41.0445ZM60.9429 37V1.47408H73.4644V16.6163L81.5693 1.47408H96.0321L85.3063 18.9701L97.5366 37H82.0789L73.4644 22.149V37H60.9429ZM103.53 37V13.0977H96.4203V1.47408H123.405V13.0977H116.294V37H103.53ZM145.268 26.0073C147.064 26.0073 148.504 25.4007 149.588 24.1874C150.688 22.9579 151.238 21.332 151.238 19.3098C151.238 17.2715 150.688 15.6375 149.588 14.408C148.504 13.1624 147.064 12.5395 145.268 12.5395C143.473 12.5395 142.025 13.1624 140.925 14.408C139.825 15.6537 139.275 17.2876 139.275 19.3098C139.275 21.332 139.825 22.9579 140.925 24.1874C142.025 25.4007 143.473 26.0073 145.268 26.0073ZM164.269 19.3098C164.269 21.9144 163.808 24.3411 162.886 26.5897C161.964 28.8222 160.613 30.8202 158.833 32.5835C157.054 34.3145 154.999 35.6411 152.67 36.5632C150.356 37.4853 147.889 37.9464 145.268 37.9464C142.615 37.9464 140.132 37.4853 137.819 36.5632C135.505 35.6411 133.451 34.2983 131.655 32.535C129.892 30.8202 128.557 28.8465 127.651 26.614C126.745 24.3815 126.292 21.9468 126.292 19.3098C126.292 16.6729 126.745 14.2301 127.651 11.9814C128.557 9.73272 129.892 7.75097 131.655 6.03615C133.435 4.28897 135.481 2.96241 137.794 2.05647C140.108 1.13435 142.599 0.673286 145.268 0.673286C147.938 0.673286 150.429 1.13435 152.743 2.05647C155.056 2.96241 157.11 4.28897 158.906 6.03615C160.653 7.76715 161.98 9.75699 162.886 12.0057C163.808 14.2543 164.269 16.6891 164.269 19.3098ZM182.178 10.6225V17.5627H184.167C185.381 17.5627 186.311 17.2715 186.958 16.6891C187.621 16.0905 187.953 15.2412 187.953 14.1411C187.953 13.0087 187.621 12.1432 186.958 11.5446C186.311 10.9299 185.381 10.6225 184.167 10.6225H182.178ZM169.656 37V1.47408H185.72C190.38 1.47408 193.939 2.50135 196.398 4.5559C198.857 6.61045 200.086 9.57095 200.086 13.4374C200.086 15.9611 199.463 18.0399 198.218 19.6738C196.988 21.3078 195.322 22.2622 193.219 22.5373L202.707 37H188.39L182.178 25.2794V37H169.656ZM40.5107 80V44.4741H64.2674V54.1078H53.0321V57.5294H63.224V66.6292H53.0321V70.3663H64.5586V80H40.5107ZM74.3137 80V56.0977H67.2037V44.4741H94.1878V56.0977H87.0778V80H74.3137ZM98.3131 80V44.4741H122.07V54.1078H110.835V57.5294H121.026V66.6292H110.835V70.3663H122.361V80H98.3131ZM140.051 53.6225V60.5627H142.041C143.254 60.5627 144.185 60.2715 144.832 59.6891C145.495 59.0905 145.827 58.2412 145.827 57.1411C145.827 56.0087 145.495 55.1432 144.832 54.5446C144.185 53.9299 143.254 53.6225 142.041 53.6225H140.051ZM127.53 80V44.4741H143.594C148.253 44.4741 151.812 45.5014 154.271 47.5559C156.73 49.6105 157.96 52.5709 157.96 56.4374C157.96 58.9611 157.337 61.0399 156.091 62.6738C154.862 64.3078 153.195 65.2622 151.092 65.5373L160.581 80H146.263L140.051 68.2794V80H127.53ZM159.877 76.9667L163.954 67.0175C165.782 68.2955 167.407 69.2338 168.831 69.8324C170.271 70.4148 171.614 70.706 172.859 70.706C173.733 70.706 174.42 70.5442 174.922 70.2207C175.423 69.8809 175.674 69.428 175.674 68.8617C175.674 67.8749 174.42 67.1227 171.913 66.605C171.104 66.427 170.473 66.2895 170.02 66.1925C167.367 65.5453 165.337 64.3967 163.929 62.7466C162.522 61.0965 161.818 59.042 161.818 56.583C161.818 52.7651 163.185 49.659 165.919 47.2647C168.653 44.8704 172.236 43.6733 176.669 43.6733C178.708 43.6733 180.714 43.9402 182.687 44.4741C184.661 45.0079 186.651 45.8168 188.657 46.9007L184.774 56.1947C183.545 55.2888 182.307 54.6012 181.061 54.1321C179.832 53.6468 178.635 53.4041 177.47 53.4041C176.58 53.4041 175.893 53.5578 175.407 53.8651C174.922 54.1563 174.679 54.5689 174.679 55.1027C174.679 56.1057 176.451 56.9874 179.994 57.7478C180.56 57.8772 180.997 57.9743 181.304 58.039C183.747 58.589 185.672 59.7133 187.079 61.412C188.487 63.1106 189.191 65.1652 189.191 67.5756C189.191 71.5068 187.767 74.718 184.92 77.2094C182.089 79.7007 178.4 80.9464 173.854 80.9464C171.525 80.9464 169.195 80.6147 166.866 79.9515C164.536 79.2882 162.206 78.2933 159.877 76.9667ZM190.258 76.9667L194.335 67.0175C196.163 68.2955 197.789 69.2338 199.213 69.8324C200.652 70.4148 201.995 70.706 203.241 70.706C204.114 70.706 204.802 70.5442 205.303 70.2207C205.805 69.8809 206.056 69.428 206.056 68.8617C206.056 67.8749 204.802 67.1227 202.294 66.605C201.486 66.427 200.855 66.2895 200.402 66.1925C197.748 65.5453 195.718 64.3967 194.311 62.7466C192.903 61.0965 192.2 59.042 192.2 56.583C192.2 52.7651 193.567 49.659 196.301 47.2647C199.035 44.8704 202.618 43.6733 207.051 43.6733C209.089 43.6733 211.095 43.9402 213.069 44.4741C215.042 45.0079 217.032 45.8168 219.038 46.9007L215.156 56.1947C213.926 55.2888 212.688 54.6012 211.443 54.1321C210.213 53.6468 209.016 53.4041 207.851 53.4041C206.962 53.4041 206.274 53.5578 205.789 53.8651C205.303 54.1563 205.061 54.5689 205.061 55.1027C205.061 56.1057 206.832 56.9874 210.375 57.7478C210.941 57.8772 211.378 57.9743 211.685 58.039C214.128 58.589 216.053 59.7133 217.461 61.412C218.868 63.1106 219.572 65.1652 219.572 67.5756C219.572 71.5068 218.148 74.718 215.301 77.2094C212.47 79.7007 208.782 80.9464 204.236 80.9464C201.906 80.9464 199.577 80.6147 197.247 79.9515C194.917 79.2882 192.588 78.2933 190.258 76.9667ZM241.606 69.0073C243.402 69.0073 244.841 68.4007 245.925 67.1874C247.025 65.9579 247.575 64.332 247.575 62.3098C247.575 60.2715 247.025 58.6375 245.925 57.408C244.841 56.1624 243.402 55.5395 241.606 55.5395C239.81 55.5395 238.362 56.1624 237.262 57.408C236.162 58.6537 235.612 60.2876 235.612 62.3098C235.612 64.332 236.162 65.9579 237.262 67.1874C238.362 68.4007 239.81 69.0073 241.606 69.0073ZM260.606 62.3098C260.606 64.9144 260.145 67.3411 259.223 69.5897C258.301 71.8222 256.95 73.8202 255.171 75.5835C253.391 77.3145 251.337 78.6411 249.007 79.5632C246.694 80.4853 244.227 80.9464 241.606 80.9464C238.953 80.9464 236.469 80.4853 234.156 79.5632C231.843 78.6411 229.788 77.2983 227.992 75.535C226.229 73.8202 224.894 71.8465 223.988 69.614C223.083 67.3815 222.63 64.9468 222.63 62.3098C222.63 59.6729 223.083 57.2301 223.988 54.9814C224.894 52.7327 226.229 50.751 227.992 49.0361C229.772 47.289 231.818 45.9624 234.132 45.0565C236.445 44.1343 238.937 43.6733 241.606 43.6733C244.275 43.6733 246.766 44.1343 249.08 45.0565C251.393 45.9624 253.448 47.289 255.244 49.0361C256.991 50.7671 258.317 52.757 259.223 55.0057C260.145 57.2543 260.606 59.6891 260.606 62.3098ZM265.994 80V44.4741H278.515L289.556 63.0621C289.411 62.237 289.305 61.323 289.241 60.32C289.192 59.317 289.168 58.0066 289.168 56.3888V44.4741H301.471V80H288.852L277.933 61.5576C278.062 62.3503 278.159 63.2077 278.224 64.1298C278.288 65.0358 278.321 66.0549 278.321 67.1874V80H265.994Z" fill="#000212"/>
</svg>
