<svg width="41" height="41" viewBox="0 0 41 41" fill="none" xmlns="http://www.w3.org/2000/svg">
<g id="Social Icons / Spotify">
<rect x="0.333496" y="0.580078" width="40" height="40" rx="10" fill="#5D5FEF"/>
<path id="Spotify" fill-rule="evenodd" clip-rule="evenodd" d="M20.3395 10.5801C14.8362 10.5801 10.3335 15.0828 10.3335 20.5861C10.3335 26.0894 14.8362 30.5921 20.3395 30.5921C25.8428 30.5921 30.3455 26.0894 30.3455 20.5861C30.3455 15.0828 25.8928 10.5801 20.3395 10.5801ZM24.9423 25.0387C24.7421 25.3389 24.3919 25.439 24.0917 25.2389C21.7403 23.788 18.7886 23.4878 15.2865 24.2883C14.9363 24.3884 14.6361 24.1382 14.536 23.838C14.436 23.4878 14.6861 23.1876 14.9863 23.0876C18.7886 22.2371 22.0905 22.5873 24.6921 24.1882C25.0423 24.3383 25.0923 24.7386 24.9423 25.0387ZM26.143 22.2871C25.8928 22.6373 25.4426 22.7874 25.0923 22.5372C22.3907 20.8863 18.2883 20.386 15.1364 21.3866C14.7361 21.4866 14.2859 21.2865 14.1858 20.8863C14.0857 20.486 14.2859 20.0357 14.6861 19.9357C18.3383 18.835 22.841 19.3854 25.9429 21.2865C26.243 21.4366 26.3931 21.9369 26.143 22.2871ZM26.243 19.4854C23.0411 17.5843 17.6879 17.3842 14.6361 18.3347C14.1358 18.4848 13.6355 18.1846 13.4854 17.7344C13.3353 17.2341 13.6355 16.7338 14.0857 16.5837C17.6379 15.533 23.4914 15.7332 27.1936 17.9345C27.6439 18.1846 27.794 18.785 27.5438 19.2353C27.2937 19.5855 26.6933 19.7356 26.243 19.4854Z" fill="white"/>
</g>
</svg>
