<svg width="40" height="41" viewBox="0 0 40 41" fill="none" xmlns="http://www.w3.org/2000/svg">
<g id="Social Icons / ApplePodcasts">
<rect x="0.5" y="1.08008" width="39" height="39" rx="9.5" stroke="white" stroke-opacity="0.25"/>
<g id="Group 1171274739">
<path id="Vector" d="M12.5564 31.5802C14.5207 31.5802 16.1129 29.988 16.1129 28.0237C16.1129 26.0595 14.5207 24.4673 12.5564 24.4673C10.5923 24.4673 9 26.0595 9 28.0237C9 29.988 10.5923 31.5802 12.5564 31.5802Z" fill="white"/>
<path id="Vector_2" d="M12.3848 9.58008V12.9658C20.7952 12.9658 27.6145 19.785 27.6145 28.1955H31.0002C31.0002 17.9187 22.6615 9.58008 12.3848 9.58008ZM12.3848 16.3515V19.7372C17.0506 19.7372 20.843 23.5296 20.843 28.1955H24.2287C24.2287 21.6513 18.9289 16.3515 12.3848 16.3515Z" fill="white"/>
</g>
</g>
</svg>
