<svg width="40" height="41" viewBox="0 0 40 41" fill="none" xmlns="http://www.w3.org/2000/svg">
<g id="Social Icons / Youtube">
<rect y="0.580078" width="40" height="40" rx="10" fill="#5D5FEF"/>
<path id="Vector" fill-rule="evenodd" clip-rule="evenodd" d="M28.7081 13.0563C29.691 13.3218 30.4636 14.0963 30.7248 15.0781C31.1999 16.86 31.1999 20.58 31.1999 20.58C31.1999 20.58 31.1999 24.3 30.7248 26.0818C30.46 27.0672 29.6874 27.8418 28.7081 28.1036C26.9308 28.58 19.7999 28.58 19.7999 28.58C19.7999 28.58 12.6726 28.58 10.8917 28.1036C9.90878 27.8381 9.13621 27.0636 8.87505 26.0818C8.3999 24.3 8.3999 20.58 8.3999 20.58C8.3999 20.58 8.3999 16.86 8.87505 15.0781C9.13983 14.0927 9.91241 13.3181 10.8917 13.0563C12.6726 12.58 19.7999 12.58 19.7999 12.58C19.7999 12.58 26.9308 12.58 28.7081 13.0563ZM23.4451 20.58L17.5221 24.009V17.1509L23.4451 20.58Z" fill="white"/>
</g>
</svg>
